<?xml version="1.0" encoding="utf-8"?>
<!-- Generator: Adobe Illustrator 24.0.2, SVG Export Plug-In . SVG Version: 6.00 Build 0)  -->
<svg version="1.1" id="Capa_1" xmlns="http://www.w3.org/2000/svg" xmlns:xlink="http://www.w3.org/1999/xlink" x="0px" y="0px"
	 viewBox="0 0 595.3 595.3" style="enable-background:new 0 0 595.3 595.3;" xml:space="preserve">
<style type="text/css">
	.st0{fill:#FFFFFF;}
</style>
<g>
	<path class="st0" d="M170,329.5h31v-18.1h20v-87.9h-23.4c-15.2,0-27.5,12.3-27.5,27.5V329.5z"/>
	<path class="st0" d="M52.2,145.9c0,0,27.2,1.9,41.9,31.5s0.2,47.9,0.2,47.9s-25.8-0.7-40.1-29.6S52.2,145.9,52.2,145.9z"/>
	<path class="st0" d="M25.1,228.3c0,0,11.2-22.4,34.6-20.5s31.5,15.6,31.5,15.6s-9.5,17.3-30.7,19.3
		C39.3,244.8,25.1,228.3,25.1,228.3z"/>
	<path class="st0" d="M543.1,145.9c0,0-27.2,1.9-41.9,31.5c-14.6,29.6-0.2,47.9-0.2,47.9s25.8-0.7,40.1-29.6
		S543.1,145.9,543.1,145.9z"/>
	<path class="st0" d="M570.2,228.3c0,0-11.2-22.4-34.6-20.5c-23.4,2-31.5,15.6-31.5,15.6s9.5,17.3,30.7,19.3
		C555.9,244.8,570.2,228.3,570.2,228.3z"/>
	<g>
		<path class="st0" d="M218.8,268.7H110.7c-13.3,0-24.2-8.7-27.2-21.7c-3-13,3.1-25.5,15.1-31.3c76.1-36.6,171.8-83,195.8-96
			l2.5-1.4c37.6-20.3,41.1-22.8,41.1-43.1c0-0.4-0.5-37.3-39.6-37.3c-10.3,0-18.5,3-24.3,8.8c-10.6,10.7-10.8,28.2-10.8,28.4
			c0,4.7-3.7,8.5-8.3,8.5c-4.7,0.1-8.5-3.7-8.5-8.3c0-1-0.1-24.6,15.6-40.4c9.1-9.2,21.3-13.8,36.3-13.8c46.3,0,56.4,39.1,56.4,54.2
			c0,30.9-12.6,37.7-49.9,57.9l-2.5,1.4c-24.2,13.1-120.2,59.6-196.5,96.3c-5.8,2.8-6.9,8.2-6,12.4c0.9,4.1,4.3,8.6,10.7,8.6h108.1
			c4.7,0,8.4,3.8,8.4,8.4S223.4,268.7,218.8,268.7z"/>
	</g>
	<path class="st0" d="M409.2,180.5"/>
	<g>
		<path class="st0" d="M489.1,268.7H447c-4.7,0-8.4-3.8-8.4-8.4s3.8-8.4,8.4-8.4h42.1c6.5,0,9.8-4.4,10.8-8.6
			c0.9-4.1-0.1-9.6-5.9-12.4l-144.1-69.7c-4.2-2-5.9-7.1-3.9-11.3c2-4.2,7.1-5.9,11.3-3.9l144.1,69.7c12,5.8,18,18.4,15,31.3
			C513.3,260,502.4,268.7,489.1,268.7z"/>
	</g>
	<g>
		<path class="st0" d="M464.9,291.8c-2,0-3.9-0.7-5.5-2.1l-23.8-20.7c-3.5-3.1-3.9-8.4-0.8-11.9l22-25.3c3.1-3.5,8.4-3.9,11.9-0.9
			c3.5,3,3.9,8.4,0.9,11.9l-16.4,19l17.5,15.2c3.5,3.1,3.9,8.4,0.8,11.9C469.6,290.8,467.3,291.8,464.9,291.8z"/>
	</g>
	<g>
		<path class="st0" d="M256.8,99.5c-2,0-4-0.7-5.6-2.2l-24.9-22.5c-3.5-3.1-3.7-8.5-0.6-11.9c3.1-3.5,8.5-3.7,11.9-0.6l18.6,16.8
			L271.8,62c3.1-3.4,8.5-3.7,11.9-0.6c3.4,3.1,3.7,8.5,0.6,11.9l-21.2,23.4C261.4,98.6,259.1,99.5,256.8,99.5z"/>
	</g>
	<g>
		<path class="st0" d="M163.6,499.9c4,2.4,6.1,6,5.1,9.9c-1.1,4-4.4,6.5-8.9,6.7c-3.1,0.1-5.7-1-8.3-2.5
			c-9.8-5.6-19.4-11.3-29.2-16.9c-0.3-0.3-0.9-0.4-1.8-0.9c-0.3,5-0.8,9.8-1.1,14.6c-0.2,1.5-0.3,3.1-0.5,4.7
			c-1.2,5.1-5.5,8-10.9,7.4c-4.7-0.7-8-5-7.7-10.1c0.1-2.8,0.5-5.6,0.8-8.5c1.2-15.3,2.4-30.6,3.5-46c0.5-6.3,0.7-12.6,0.9-18.9
			c0.1-1.5,0-3.3,0.3-4.8c0.8-5,5.6-9,10.4-7.7c4.4,1.2,8.7,0.3,13-0.2c8.8-0.9,17.2,0.4,25.3,4.6c13.3,6.9,18.3,21.2,12.5,35.1
			c-3.9,9.5-10.7,16.5-20.2,20.7c-0.8,0.4-1.6,0.8-2.6,1.3C150.6,492.4,157.1,496.2,163.6,499.9z M134.7,472.2
			c7.8-1.4,12.6-6.5,15.2-13.9c1.7-4.7-0.1-9.1-4.6-11.5c-6.8-3.6-13.9-3.3-21.1-1c-0.7,8.8-1.2,17.5-1.8,26.1c0,0.5,0,1.1,0,2.4
			C126.8,473.5,130.8,472.9,134.7,472.2z"/>
		<path class="st0" d="M197.6,468.3c3.4,0,6.3,0,9.1,0c2.4,0.1,4.7,0.1,6.8,0.5c4.3,0.8,7.4,4.3,7.5,8.3c0,4.2-2.5,7.4-7,8.6
			c-1.8,0.4-3.7,0.4-5.5,0.5c-3,0-5.9,0-8.9,0.1c-0.2,0-0.4,0.1-1.3,0.4c0.3,3.6,0.6,7.5,1.3,11.3c1.2,7.4,1.2,7.6,8.7,6.7
			c4.4-0.3,9-1.1,13.4-2c2.9-0.5,5.6-0.1,8,1.6c5.3,3.8,4.7,11.8-1.6,14.6c-3.3,1.4-6.9,2-10.4,2.5c-3.7,0.7-7.5,1-11.2,1.4
			c-11.8,1.5-21.8-5.2-24.4-16c-1.8-8-2.7-16.2-2.8-24.3c-0.3-12.8-0.2-25.7,0-38.5c0-3.1,0.3-6.4,1-9.5c1.1-5.6,5.3-8.7,10.9-8.2
			c10.4,0.9,20.8,1.6,31.1,2.5c1.2,0.1,2.4,0.2,3.6,0.4c4.1,1.2,6.8,4.7,6.6,8.6c0,3.9-2.7,7.5-6.9,8.2c-3.1,0.5-6.3,0.7-9.5,0.4
			c-5.7-0.3-11.6-1-17.7-1.5C197.2,453.1,197.6,460.5,197.6,468.3z"/>
		<path class="st0" d="M276.6,467.9c2.4-9.6,7.6-26.1,10-35.8c0.9-3.7,3.3-6.2,6.8-7c3.8-0.7,6.9,0.1,9.5,3.1c1.8,2.1,2.4,4.4,2.1,7
			c-0.4,2.7-1.1,5.6-1.8,8.2c-4.8,18.6-12.4,43.9-17.3,62.5c-0.6,2.5-1.6,5.1-2.8,7.5c-1.8,4-5,6.5-9.6,6.8c-4.6,0-7.9-2.3-10-6.2
			c-4.1-7.5-7-15.6-9.3-23.8c-4-14.1-8.9-35.2-12.7-49.4c-0.2-0.9-0.4-1.8-0.7-2.7c-0.2-5.4,2.6-9.1,7.7-10c5-0.9,9.5,2,10.8,6.7
			c0.8,3.4,1.4,6.6,2.2,9.8c3,10.8,7,28.5,10,39.5c0.4,0,0.8,0,1.2,0C273.9,478.8,275.3,473.3,276.6,467.9z"/>
		<path class="st0" d="M327,428.2c3.1,1.3,5.2,3.5,5.6,6.7c0.4,2.3,0.7,4.7,0.7,6.8c0.3,20.6,0.3,47.5,0.4,68.1c0,1.1,0,2.3-0.2,3.5
			c-0.9,4.7-5,7.9-9.6,7.6c-4.6-0.2-8.3-3.8-8.7-8.3c-0.3-1.6-0.2-3.1-0.2-4.9c0-25.7,0.2-50.9-0.8-70.4
			C313.7,430.4,320.9,425.7,327,428.2z"/>
		<path class="st0" d="M378.7,467.9c2.4-9.6,7.6-26.1,10-35.8c0.9-3.7,3.3-6.2,6.8-7c3.8-0.7,6.9,0.1,9.5,3.1c1.8,2.1,2.4,4.4,2.1,7
			c-0.4,2.7-1.1,5.6-1.8,8.2c-4.8,18.6-12.4,43.9-17.3,62.5c-0.7,2.5-1.6,5.1-2.8,7.5c-1.8,4-5,6.5-9.6,6.8c-4.6,0-7.9-2.3-10-6.2
			c-4.1-7.5-7-15.6-9.3-23.8c-4-14.1-8.9-35.2-12.7-49.4c-0.2-0.9-0.4-1.8-0.7-2.7c-0.2-5.4,2.6-9.1,7.7-10c5-0.9,9.5,2,10.8,6.7
			c0.8,3.4,1.4,6.6,2.2,9.8c3,10.8,7,28.5,10,39.5c0.4,0,0.8,0,1.2,0C376,478.8,377.4,473.3,378.7,467.9z"/>
		<path class="st0" d="M426.5,505c-1.1,3.6-2.2,6.8-3.4,10c-2,4.6-5.7,6.8-10.6,6.2c-5.3-0.8-9-6-7.4-11.2
			c7.5-24.5,14.2-49.3,26-72.3c1-2.2,2-4.3,3.3-6.3c4-6,11.8-6.8,16.6-1.7c2.3,2.3,4.1,5.2,4.9,8.1c2.5,8.7,4.9,17.3,6.6,26
			c2.6,14.4,4.7,29.1,7,43.6c0.1,1,0.2,2.1,0.2,3.1c0.1,5.1-2.8,8.6-8,9.4c-4.4,0.7-9.1-2.4-10.3-6.9c-0.5-2.1-0.8-4-1.2-6.8
			C442.2,505.7,434.5,505.4,426.5,505z M447.5,488c-0.8-9.1-4.1-25.1-5.6-28.2c-3.3,5.9-8.9,21.8-9.8,27.6
			C437.3,487.3,442.4,488.6,447.5,488z"/>
		<path class="st0" d="M516.9,501.3c2.2-0.1,4.6-0.1,6.6,0.5c6.3,2.5,7.3,10.5,1.8,14.6c-2.4,1.7-5.1,2.4-7.8,2.7
			c-6.3,0.3-12.6,0.8-18.9,0.8c-8.2,0.1-14.3-4.2-16.7-12.4c-1.2-3.8-2-7.8-2-11.7c0.1-19.9,0.5-39.9,0.8-59.6
			c0-1.5,0.3-2.8,0.5-4.1c1.2-4.4,5.3-7.6,9.8-7.3c5,0.3,8.5,3.9,8.9,8.8c0,0.8-0.1,1.6-0.1,2.5c-0.4,17.9-1,36-1.4,54.1
			c0.2,8.3-0.7,12.1,8.5,11.7C510.3,501.7,513.5,501.5,516.9,501.3z"/>
	</g>
	<g>
		<path class="st0" d="M194.5,372.4c-2.2,0-4.3-0.9-5.9-2.4c-1.6-1.6-2.5-3.8-2.5-6v-58.6c0-4.7,3.8-8.4,8.4-8.4h18.1v-29.3
			c0-14.6-0.7-23.7-10-28.1c-3.6-1.7-5.5-5.6-4.6-9.5c0.9-3.9,4.3-6.6,8.2-6.6h172.9c21.6,0,39.1,17.6,39.1,39.1v34.5l17.8,0.3
			c4.6,0.1,8.3,3.8,8.3,8.4v57.7c0,2.2-0.9,4.4-2.5,6c-1.6,1.6-3.7,2.5-6,2.5l0,0l-75,0c-4.6,0-8.4-3.7-8.4-8.4l-0.1-9.9
			c0-18.8-15.2-34-33.9-34c-18.7,0-33.9,15.2-33.9,33.9c0,0,0,0,0,0.1l-0.1,9c0,4.6-3.7,8.3-8.3,8.4l-81.5,1.3
			C194.6,372.4,194.5,372.4,194.5,372.4z M202.9,313.9v41.6l64.7-1.1l0-0.7c0-28,22.8-50.7,50.8-50.7c28,0,50.8,22.8,50.8,50.8
			l0,1.4l58.2,0v-40.9l-17.8-0.3c-4.6-0.1-8.3-3.8-8.3-8.4v-42.8c0-12.3-10-22.3-22.3-22.3H225.5c3.9,9,3.9,19.4,3.9,27.3v37.8
			c0,4.7-3.8,8.4-8.4,8.4H202.9z M276.1,353.7L276.1,353.7L276.1,353.7z"/>
	</g>
	<g>
		<path class="st0" d="M177.8,547.9c1.4-2.6,3.5-4.7,6-6.1c2.6-1.5,5.5-2.2,8.8-2.2c4,0,7.5,1.1,10.3,3.2c2.9,2.1,4.8,5,5.7,8.7
			h-9.1c-0.7-1.4-1.6-2.5-2.9-3.2c-1.2-0.7-2.6-1.1-4.2-1.1c-2.5,0-4.6,0.9-6.2,2.7c-1.6,1.8-2.4,4.1-2.4,7.1c0,3,0.8,5.3,2.4,7.1
			c1.6,1.8,3.6,2.7,6.2,2.7c1.6,0,3-0.4,4.2-1.1c1.2-0.7,2.2-1.8,2.9-3.2h9.1c-1,3.7-2.9,6.5-5.7,8.6c-2.9,2.1-6.3,3.2-10.3,3.2
			c-3.3,0-6.2-0.7-8.8-2.2c-2.6-1.5-4.6-3.5-6-6.1c-1.4-2.6-2.2-5.6-2.2-8.9C175.7,553.5,176.4,550.5,177.8,547.9z"/>
		<path class="st0" d="M226.8,567.4h10.8v6.4h-19V540h8.2V567.4z"/>
		<path class="st0" d="M253.7,571.9c-2.7-1.5-4.8-3.5-6.3-6.2c-1.6-2.6-2.3-5.6-2.3-8.9c0-3.3,0.8-6.3,2.3-8.9
			c1.6-2.6,3.7-4.7,6.3-6.2c2.7-1.5,5.6-2.2,8.7-2.2c3.2,0,6.1,0.7,8.7,2.2c2.7,1.5,4.7,3.5,6.3,6.2c1.5,2.6,2.3,5.6,2.3,8.9
			c0,3.3-0.8,6.3-2.3,8.9c-1.5,2.7-3.6,4.7-6.3,6.2c-2.6,1.5-5.5,2.2-8.7,2.2C259.2,574.1,256.3,573.4,253.7,571.9z M268.9,563.9
			c1.6-1.8,2.4-4.2,2.4-7.1c0-3-0.8-5.4-2.4-7.2c-1.6-1.8-3.8-2.7-6.5-2.7c-2.7,0-4.9,0.9-6.5,2.6c-1.6,1.8-2.4,4.2-2.4,7.2
			c0,3,0.8,5.4,2.4,7.2c1.6,1.8,3.8,2.7,6.5,2.7C265.1,566.6,267.3,565.7,268.9,563.9z"/>
		<path class="st0" d="M313.4,540v6.6h-9v27.2h-8.2v-27.2h-9V540H313.4z"/>
		<path class="st0" d="M351.7,540v33.8h-8.2v-13.9h-12.8v13.9h-8.2V540h8.2v13.2h12.8V540H351.7z"/>
		<path class="st0" d="M370.7,540v33.8h-8.2V540H370.7z"/>
		<path class="st0" d="M411.7,573.8h-8.2l-13.8-20.9v20.9h-8.2V540h8.2l13.8,21v-21h8.2V573.8z"/>
		<path class="st0" d="M445,550.7c-0.6-1.1-1.5-2-2.6-2.6c-1.1-0.6-2.5-0.9-4-0.9c-2.7,0-4.8,0.9-6.4,2.6c-1.6,1.8-2.4,4.1-2.4,7
			c0,3.1,0.8,5.5,2.5,7.3c1.7,1.8,4,2.6,7,2.6c2,0,3.7-0.5,5.1-1.5c1.4-1,2.4-2.5,3.1-4.4h-10.5v-6.1h17.9v7.7
			c-0.6,2.1-1.6,4-3.1,5.7c-1.5,1.8-3.3,3.2-5.6,4.3c-2.2,1.1-4.8,1.6-7.6,1.6c-3.3,0-6.3-0.7-8.9-2.2c-2.6-1.5-4.7-3.5-6.1-6.1
			c-1.5-2.6-2.2-5.6-2.2-8.9c0-3.3,0.7-6.3,2.2-8.9c1.5-2.6,3.5-4.7,6.1-6.1c2.6-1.5,5.6-2.2,8.9-2.2c4,0,7.5,1,10.2,2.9
			c2.8,2,4.6,4.7,5.5,8.1H445z"/>
	</g>
</g>
</svg>
