<?xml version="1.0" encoding="utf-8"?>
<!-- Generator: Adobe Illustrator 24.0.2, SVG Export Plug-In . SVG Version: 6.00 Build 0)  -->
<svg version="1.1" id="Capa_1" xmlns="http://www.w3.org/2000/svg" xmlns:xlink="http://www.w3.org/1999/xlink" x="0px" y="0px"
	 viewBox="0 0 906.2 335.8" style="enable-background:new 0 0 906.2 335.8;" xml:space="preserve">
<style type="text/css">
	.st0{fill:#FFFFFF;}
	.st1{fill:#FFFFFF;stroke:#36524E;stroke-width:14;stroke-linecap:round;stroke-linejoin:round;stroke-miterlimit:10;}
</style>
<path class="st0" d="M137.9,272.8h25.7l0-15h16.6v-72.9h-19.4c-12.6,0-22.9,10.2-22.9,22.9V272.8z"/>
<path class="st0" d="M40.1,120.4c0,0,22.6,1.6,34.7,26.2s0.2,39.8,0.2,39.8s-21.4-0.5-33.3-24.6S40.1,120.4,40.1,120.4z"/>
<path class="st0" d="M17.6,188.8c0,0,9.3-18.6,28.7-17c19.4,1.6,26.1,13,26.1,13s-7.9,14.3-25.5,16S17.6,188.8,17.6,188.8z"/>
<path class="st0" d="M447.7,120.4c0,0-22.6,1.6-34.7,26.2c-12.1,24.5-0.2,39.8-0.2,39.8s21.4-0.5,33.3-24.6
	C457.9,137.7,447.7,120.4,447.7,120.4z"/>
<path class="st0" d="M470.2,188.8c0,0-9.3-18.6-28.7-17c-19.4,1.6-26.1,13-26.1,13s7.9,14.3,25.5,16S470.2,188.8,470.2,188.8z"/>
<g>
	<path class="st0" d="M178.4,222.4H88.7c-11,0-20.1-7.2-22.6-18c-2.5-10.8,2.6-21.2,12.5-26c63.2-30.4,142.7-68.9,162.5-79.7
		l2.1-1.1c31.2-16.9,34.1-18.9,34.1-35.7c0-0.3-0.4-31-32.8-31c-8.6,0-15.3,2.5-20.2,7.3c-8.8,8.9-8.9,23.4-8.9,23.6
		c0,3.9-3.1,7-6.9,7.1c0,0,0,0-0.1,0c-3.8,0-7-3.1-7-6.9c0-0.8-0.1-20.4,13-33.6c7.5-7.6,17.7-11.5,30.1-11.5
		c38.4,0,46.8,32.5,46.8,45c0,25.6-10.4,31.3-41.4,48.1l-2.1,1.1c-20.1,10.9-99.8,49.5-163.1,80c-4.8,2.3-5.7,6.8-4.9,10.3
		c0.8,3.4,3.5,7.1,8.9,7.1h89.8c3.9,0,7,3.1,7,7S182.3,222.4,178.4,222.4z"/>
</g>
<path class="st1" d="M336.5,149.2"/>
<g>
	<path class="st0" d="M402.9,222.4h-35c-3.9,0-7-3.1-7-7s3.1-7,7-7h35c5.4,0,8.1-3.7,8.9-7.1c0.8-3.4-0.1-7.9-4.9-10.3l-119.6-57.9
		c-3.5-1.7-4.9-5.9-3.3-9.3c1.7-3.5,5.9-4.9,9.3-3.3l119.6,57.9c9.9,4.8,15,15.3,12.5,26C423,215.2,413.9,222.4,402.9,222.4z"/>
</g>
<g>
	<path class="st0" d="M382.8,241.5c-1.6,0-3.3-0.6-4.6-1.7l-19.8-17.2c-2.9-2.5-3.2-6.9-0.7-9.9l18.2-21c2.5-2.9,7-3.2,9.9-0.7
		c2.9,2.5,3.2,7,0.7,9.9l-13.7,15.8l14.5,12.6c2.9,2.5,3.2,7,0.7,9.9C386.7,240.7,384.7,241.5,382.8,241.5z"/>
</g>
<g>
	<path class="st0" d="M210,81.9c-1.7,0-3.4-0.6-4.7-1.8l-20.7-18.7c-2.9-2.6-3.1-7-0.5-9.9c2.6-2.9,7-3.1,9.9-0.5l15.5,14l12.9-14.3
		c2.6-2.9,7-3.1,9.9-0.5c2.9,2.6,3.1,7,0.5,9.9l-17.6,19.4C213.8,81.1,211.9,81.9,210,81.9z"/>
</g>
<g>
	<path class="st0" d="M570.5,189.2c3.3,2,5,4.9,4.2,8.2c-0.9,3.3-3.7,5.4-7.4,5.6c-2.6,0.1-4.8-0.8-6.9-2.1
		c-8.1-4.7-16.1-9.4-24.2-14c-0.3-0.3-0.7-0.4-1.5-0.7c-0.3,4.1-0.6,8.1-0.9,12.1c-0.2,1.3-0.3,2.6-0.5,3.9c-1,4.2-4.6,6.7-9.1,6.1
		c-3.9-0.5-6.7-4.1-6.4-8.4c0.1-2.3,0.5-4.7,0.6-7c1-12.7,2-25.4,2.9-38.2c0.5-5.2,0.5-10.4,0.7-15.7c0.1-1.3,0-2.7,0.3-4
		c0.6-4.1,4.7-7.5,8.6-6.4c3.7,1,7.2,0.3,10.8-0.2c7.3-0.7,14.3,0.4,21,3.8c11.1,5.8,15.2,17.6,10.3,29.2
		c-3.2,7.9-8.9,13.7-16.7,17.2c-0.6,0.4-1.3,0.6-2.2,1.1C559.7,183,565.1,186.1,570.5,189.2z M546.4,166.3
		c6.5-1.2,10.4-5.4,12.6-11.5c1.4-3.9-0.1-7.6-3.8-9.5c-5.7-3-11.5-2.7-17.5-0.8c-0.5,7.3-1,14.5-1.5,21.7c0,0.5,0,0.9,0,2
		C539.9,167.3,543.2,166.8,546.4,166.3z"/>
	<path class="st0" d="M598.7,163c2.8,0,5.2,0,7.6,0c2,0.1,3.9,0.1,5.7,0.5c3.6,0.6,6.1,3.6,6.2,6.9c0,3.5-2.1,6.1-5.8,7.1
		c-1.5,0.4-3.1,0.4-4.6,0.5c-2.5,0-4.9,0-7.4,0.1c-0.2,0-0.4,0.1-1.1,0.4c0.3,3,0.5,6.2,1.1,9.4c1,6.1,1,6.3,7.2,5.6
		c3.7-0.3,7.5-0.9,11.2-1.6c2.4-0.5,4.7-0.1,6.7,1.3c4.4,3.2,3.9,9.8-1.3,12.1c-2.7,1.2-5.8,1.6-8.6,2.1c-3.1,0.5-6.2,0.8-9.3,1.2
		c-9.8,1.3-18.1-4.3-20.2-13.3c-1.5-6.7-2.2-13.4-2.3-20.2c-0.3-10.6-0.2-21.3,0-31.9c0-2.6,0.3-5.3,0.8-7.9
		c0.9-4.7,4.4-7.2,9.1-6.8c8.6,0.7,17.3,1.3,25.8,2.1c1,0.1,2,0.2,3,0.4c3.4,1,5.7,3.9,5.5,7.1c0,3.2-2.2,6.2-5.8,6.8
		c-2.6,0.5-5.2,0.5-7.9,0.4c-4.8-0.3-9.6-0.8-14.7-1.3C598.4,150.3,598.7,156.5,598.7,163z"/>
	<path class="st0" d="M664.2,162.7c2-8,6.3-21.7,8.3-29.7c0.7-3.1,2.7-5.1,5.7-5.8c3.1-0.5,5.8,0.1,7.9,2.6c1.5,1.7,2,3.7,1.7,5.8
		c-0.4,2.2-0.9,4.7-1.5,6.8c-4,15.5-10.3,36.4-14.4,51.9c-0.5,2.1-1.3,4.2-2.3,6.2c-1.5,3.3-4.1,5.4-8,5.7c-3.8,0-6.6-1.9-8.3-5.1
		c-3.4-6.2-5.9-13-7.7-19.8c-3.3-11.7-7.4-29.2-10.5-41c-0.2-0.7-0.4-1.5-0.5-2.2c-0.2-4.5,2.2-7.6,6.4-8.3c4.1-0.7,7.9,1.6,9,5.6
		c0.6,2.8,1.2,5.5,1.8,8.1c2.5,9,5.8,23.7,8.3,32.8c0.4,0,0.6,0,1,0C662,171.7,663.2,167.2,664.2,162.7z"/>
	<path class="st0" d="M706.1,129.7c2.6,1.1,4.3,2.9,4.7,5.6c0.4,1.9,0.5,3.9,0.5,5.7c0.3,17.1,0.3,39.4,0.4,56.5
		c0,0.9,0,1.9-0.2,2.9c-0.7,3.9-4.1,6.6-8,6.3c-3.8-0.2-6.9-3.2-7.2-6.9c-0.3-1.4-0.2-2.6-0.2-4c0-21.3,0.2-42.3-0.6-58.4
		C695.1,131.5,701,127.6,706.1,129.7z"/>
	<path class="st0" d="M749,162.7c2-8,6.3-21.7,8.3-29.7c0.7-3.1,2.7-5.1,5.7-5.8c3.2-0.5,5.8,0.1,7.9,2.6c1.5,1.7,2,3.7,1.7,5.8
		c-0.4,2.2-0.9,4.7-1.5,6.8c-4,15.5-10.3,36.4-14.4,51.9c-0.5,2.1-1.3,4.2-2.3,6.2c-1.5,3.3-4.1,5.4-8,5.7c-3.8,0-6.6-1.9-8.3-5.1
		c-3.4-6.2-5.8-13-7.7-19.8c-3.3-11.7-7.4-29.2-10.5-41c-0.2-0.7-0.4-1.5-0.5-2.2c-0.2-4.5,2.2-7.6,6.4-8.3c4.1-0.7,7.9,1.6,9,5.6
		c0.6,2.8,1.2,5.5,1.8,8.1c2.5,9,5.8,23.7,8.3,32.8c0.4,0,0.6,0,1,0C746.8,171.7,747.9,167.2,749,162.7z"/>
	<path class="st0" d="M788.7,193.4c-0.9,3-1.8,5.7-2.8,8.3c-1.6,3.8-4.8,5.7-8.8,5.1c-4.4-0.6-7.5-4.9-6.1-9.3
		c6.2-20.3,11.8-40.9,21.6-60c0.8-1.8,1.6-3.6,2.7-5.2c3.3-5,9.8-5.7,13.8-1.4c1.9,1.9,3.4,4.3,4,6.8c2.1,7.2,4,14.4,5.5,21.6
		c2.2,12,3.9,24.1,5.8,36.2c0.1,0.8,0.2,1.7,0.2,2.6c0.1,4.2-2.3,7.1-6.7,7.8c-3.7,0.5-7.6-2-8.5-5.8c-0.5-1.7-0.6-3.3-1-5.7
		C801.8,194.1,795.4,193.8,788.7,193.4z M806.2,179.3c-0.6-7.6-3.4-20.9-4.7-23.4c-2.7,4.9-7.4,18.1-8.1,22.9
		C797.7,178.8,801.9,179.8,806.2,179.3z"/>
	<path class="st0" d="M863.8,190.4c1.8-0.1,3.8-0.1,5.5,0.4c5.2,2.1,6,8.7,1.5,12.1c-2,1.4-4.2,2-6.5,2.2
		c-5.2,0.3-10.4,0.6-15.7,0.6c-6.8,0.1-11.9-3.5-13.9-10.3c-1-3.2-1.6-6.5-1.6-9.7c0.1-16.6,0.4-33.1,0.6-49.5
		c0-1.3,0.3-2.3,0.5-3.4c1-3.7,4.4-6.3,8.1-6c4.1,0.3,7,3.2,7.4,7.3c0,0.6-0.1,1.3-0.1,2.1c-0.4,14.8-0.8,29.9-1.2,44.9
		c0.2,6.9-0.5,10.1,7,9.7C858.3,190.7,861,190.6,863.8,190.4z"/>
</g>
<g>
	<path class="st0" d="M158.2,308.5c-1.8,0-3.6-0.7-4.9-2c-1.3-1.3-2.1-3.1-2.1-5v-48.6c0-3.9,3.1-7,7-7h15v-24.3
		c0-12.1-0.6-19.7-8.3-23.3c-3-1.4-4.6-4.7-3.8-7.9c0.7-3.2,3.6-5.5,6.8-5.5h143.6c17.9,0,32.5,14.6,32.5,32.5V246l14.7,0.3
		c3.8,0.1,6.9,3.2,6.9,7v47.9c0,1.9-0.7,3.6-2,5c-1.3,1.3-3.1,2-5,2l0,0l-62.3,0c-3.8,0-7-3.1-7-6.9l-0.1-8.2
		c0-15.6-12.6-28.2-28.2-28.2S233,277.4,233,292.9c0,0,0,0,0,0.1l-0.1,7.5c0,3.8-3.1,6.9-6.9,6.9l-67.7,1.1
		C158.3,308.5,158.3,308.5,158.2,308.5z M165.2,259.9v34.5l53.7-0.9l0-0.6c0-23.2,18.9-42.1,42.2-42.1c23.2,0,42.2,18.9,42.2,42.2
		l0,1.2l48.3,0v-34l-14.7-0.3c-3.8-0.1-6.9-3.2-6.9-7v-35.5c0-10.2-8.3-18.5-18.5-18.5H184c3.3,7.5,3.3,16.1,3.3,22.7v31.3
		c0,3.9-3.1,7-7,7H165.2z M226,292.9L226,292.9L226,292.9z"/>
</g>
<g>
	<path class="st0" d="M582.3,229.1c1.2-2.2,2.9-3.9,5-5.1c2.1-1.2,4.6-1.8,7.3-1.8c3.3,0,6.2,0.9,8.6,2.6c2.4,1.8,4,4.2,4.8,7.2
		h-7.5c-0.6-1.2-1.4-2.1-2.4-2.7s-2.2-0.9-3.5-0.9c-2.1,0-3.8,0.7-5.1,2.2c-1.3,1.5-2,3.4-2,5.9s0.7,4.4,2,5.9
		c1.3,1.5,3,2.2,5.1,2.2c1.3,0,2.5-0.3,3.5-0.9s1.8-1.5,2.4-2.7h7.5c-0.8,3-2.4,5.4-4.8,7.2c-2.4,1.7-5.2,2.6-8.6,2.6
		c-2.7,0-5.2-0.6-7.3-1.8c-2.1-1.2-3.8-2.9-5-5.1c-1.2-2.2-1.8-4.6-1.8-7.4S581.1,231.2,582.3,229.1z"/>
	<path class="st0" d="M623,245.3h9v5.3h-15.8v-28.1h6.8V245.3z"/>
	<path class="st0" d="M645.2,249c-2.2-1.2-3.9-2.9-5.2-5.1c-1.3-2.2-1.9-4.7-1.9-7.4c0-2.7,0.6-5.2,1.9-7.4c1.3-2.2,3-3.9,5.2-5.1
		c2.2-1.2,4.6-1.8,7.3-1.8s5.1,0.6,7.3,1.8c2.2,1.2,3.9,2.9,5.2,5.1c1.3,2.2,1.9,4.7,1.9,7.4c0,2.7-0.6,5.2-1.9,7.4
		c-1.3,2.2-3,3.9-5.2,5.1c-2.2,1.2-4.6,1.8-7.2,1.8S647.4,250.2,645.2,249z M657.9,242.4c1.3-1.5,2-3.5,2-5.9c0-2.5-0.7-4.5-2-5.9
		c-1.3-1.5-3.1-2.2-5.4-2.2c-2.3,0-4.1,0.7-5.4,2.2c-1.3,1.5-2,3.5-2,6c0,2.5,0.7,4.5,2,5.9c1.3,1.5,3.2,2.2,5.4,2.2
		C654.7,244.6,656.5,243.8,657.9,242.4z"/>
	<path class="st0" d="M694.8,222.5v5.5h-7.4v22.6h-6.8V228h-7.4v-5.5H694.8z"/>
	<path class="st0" d="M726.6,222.5v28.1h-6.8V239h-10.6v11.6h-6.8v-28.1h6.8v11h10.6v-11H726.6z"/>
	<path class="st0" d="M742.4,222.5v28.1h-6.8v-28.1H742.4z"/>
	<path class="st0" d="M776.4,250.6h-6.8l-11.4-17.3v17.3h-6.8v-28.1h6.8l11.4,17.4v-17.4h6.8V250.6z"/>
	<path class="st0" d="M804,231.4c-0.5-0.9-1.2-1.6-2.2-2.1s-2.1-0.7-3.3-0.7c-2.2,0-4,0.7-5.3,2.2c-1.3,1.5-2,3.4-2,5.8
		c0,2.6,0.7,4.6,2.1,6.1c1.4,1.5,3.3,2.2,5.8,2.2c1.7,0,3.1-0.4,4.3-1.3s2-2.1,2.5-3.7h-8.7v-5h14.9v6.4c-0.5,1.7-1.4,3.3-2.6,4.8
		c-1.2,1.5-2.8,2.7-4.6,3.6c-1.9,0.9-4,1.4-6.3,1.4c-2.8,0-5.2-0.6-7.4-1.8c-2.2-1.2-3.9-2.9-5.1-5.1c-1.2-2.2-1.8-4.6-1.8-7.4
		s0.6-5.2,1.8-7.4c1.2-2.2,2.9-3.9,5.1-5.1c2.2-1.2,4.6-1.8,7.4-1.8c3.4,0,6.2,0.8,8.5,2.4s3.8,3.9,4.6,6.8H804z"/>
</g>
</svg>
